<svg xmlns="http://www.w3.org/2000/svg" xmlns:xlink="http://www.w3.org/1999/xlink" width="500" zoomAndPan="magnify" viewBox="0 0 375 374.999991" height="500" preserveAspectRatio="xMidYMid meet" version="1.0"><defs><g/><clipPath id="2ae7881b71"><path d="M 314.210938 203.96875 L 332.964844 203.96875 L 332.964844 222.722656 L 314.210938 222.722656 Z M 314.210938 203.96875 " clip-rule="nonzero"/></clipPath><clipPath id="d7d298c118"><path d="M 323.585938 203.96875 C 318.40625 203.96875 314.210938 208.167969 314.210938 213.347656 C 314.210938 218.527344 318.40625 222.722656 323.585938 222.722656 C 328.765625 222.722656 332.964844 218.527344 332.964844 213.347656 C 332.964844 208.167969 328.765625 203.96875 323.585938 203.96875 Z M 323.585938 203.96875 " clip-rule="nonzero"/></clipPath></defs><g fill="#000000" fill-opacity="1"><g transform="translate(50.065625, 219.456069)"><g><path d="M 68.0625 0 L 39.625 0 L 39.625 -33.796875 C 39.625 -35.617188 39.164062 -36.984375 38.25 -37.890625 C 37.34375 -38.804688 36.273438 -39.265625 35.046875 -39.265625 C 33.816406 -39.265625 32.742188 -38.828125 31.828125 -37.953125 C 30.910156 -37.078125 30.453125 -35.726562 30.453125 -33.90625 L 30.453125 0 L 1.1875 0 L 1.1875 -35.09375 C 1.1875 -41.363281 2.15625 -46.640625 4.09375 -50.921875 C 6.039062 -55.203125 8.660156 -58.648438 11.953125 -61.265625 C 15.242188 -63.890625 18.890625 -65.796875 22.890625 -66.984375 C 26.898438 -68.171875 30.96875 -68.765625 35.09375 -68.765625 C 38.425781 -68.765625 41.71875 -68.191406 44.96875 -67.046875 C 48.226562 -65.898438 51.207031 -63.976562 53.90625 -61.28125 C 56.195312 -63.8125 59.03125 -65.671875 62.40625 -66.859375 C 65.78125 -68.054688 69.09375 -68.691406 72.34375 -68.765625 C 76.550781 -68.765625 80.675781 -68.148438 84.71875 -66.921875 C 88.757812 -65.691406 92.425781 -63.75 95.71875 -61.09375 C 99.007812 -58.4375 101.644531 -54.96875 103.625 -50.6875 C 105.613281 -46.40625 106.609375 -41.207031 106.609375 -35.09375 L 106.609375 0 L 77.34375 0 L 77.34375 -33.90625 C 77.34375 -35.726562 76.863281 -37.078125 75.90625 -37.953125 C 74.957031 -38.828125 73.890625 -39.265625 72.703125 -39.265625 C 71.515625 -39.265625 70.441406 -38.804688 69.484375 -37.890625 C 68.535156 -36.984375 68.0625 -35.617188 68.0625 -33.796875 Z M 68.0625 0 "/></g></g></g><g fill="#000000" fill-opacity="1"><g transform="translate(315.335128, 155.616936)"><g><path d="M -68.0625 0 L -39.625 0 L -39.625 33.796875 C -39.625 35.617188 -39.164062 36.984375 -38.25 37.890625 C -37.34375 38.804688 -36.273438 39.265625 -35.046875 39.265625 C -33.816406 39.265625 -32.742188 38.828125 -31.828125 37.953125 C -30.910156 37.078125 -30.453125 35.726562 -30.453125 33.90625 L -30.453125 0 L -1.1875 0 L -1.1875 35.09375 C -1.1875 41.363281 -2.15625 46.640625 -4.09375 50.921875 C -6.039062 55.203125 -8.660156 58.648438 -11.953125 61.265625 C -15.242188 63.890625 -18.890625 65.796875 -22.890625 66.984375 C -26.898438 68.171875 -30.96875 68.765625 -35.09375 68.765625 C -38.425781 68.765625 -41.71875 68.191406 -44.96875 67.046875 C -48.226562 65.898438 -51.207031 63.976562 -53.90625 61.28125 C -56.195312 63.8125 -59.03125 65.671875 -62.40625 66.859375 C -65.78125 68.054688 -69.09375 68.691406 -72.34375 68.765625 C -76.550781 68.765625 -80.675781 68.148438 -84.71875 66.921875 C -88.757812 65.691406 -92.425781 63.75 -95.71875 61.09375 C -99.007812 58.4375 -101.644531 54.96875 -103.625 50.6875 C -105.613281 46.40625 -106.609375 41.207031 -106.609375 35.09375 L -106.609375 0 L -77.34375 0 L -77.34375 33.90625 C -77.34375 35.726562 -76.863281 37.078125 -75.90625 37.953125 C -74.957031 38.828125 -73.890625 39.265625 -72.703125 39.265625 C -71.515625 39.265625 -70.441406 38.804688 -69.484375 37.890625 C -68.535156 36.984375 -68.0625 35.617188 -68.0625 33.796875 Z M -68.0625 0 "/></g></g></g><path stroke-linecap="butt" transform="matrix(1.742691, 0, 0, 1.742691, 121.912247, 97.390014)" fill="none" stroke-linejoin="miter" d="M 53.026077 22.206938 L 53.026077 50.880266 C 53.026077 53.657491 52.497082 56.275568 51.441334 58.730016 C 50.396792 61.186705 48.942056 63.349757 47.074882 65.214689 C 45.207709 67.081862 43.058106 68.543324 40.623832 69.599072 C 38.189558 70.643613 35.560273 71.165884 32.738218 71.165884 C 29.960994 71.165884 27.342916 70.643613 24.886227 69.599072 C 22.43178 68.543324 20.279935 67.081862 18.435177 65.214689 C 16.590418 63.349757 15.146889 61.186705 14.102348 58.730016 C 13.057807 56.275568 12.535536 53.657491 12.535536 50.880266 C 12.535536 48.05597 13.057807 45.428927 14.102348 42.994653 C 15.146889 40.560379 16.590418 38.410776 18.435177 36.543602 C 20.279935 34.676429 22.43178 33.221692 24.886227 32.17491 C 27.342916 31.130368 29.960994 30.608098 32.738218 30.608098 L 35.27336 30.608098 L 35.27336 47.394727 L 32.738218 47.394727 C 31.783337 47.394727 30.971913 47.739918 30.303944 48.42806 C 29.649425 49.107236 29.322165 49.923144 29.322165 50.880266 C 29.322165 51.835147 29.649425 52.65778 30.303944 53.345922 C 30.971913 54.025098 31.783337 54.363565 32.738218 54.363565 C 33.737929 54.363565 34.567286 54.025098 35.221805 53.345922 C 35.889774 52.65778 36.221517 51.835147 36.221517 50.880266 L 36.221517 22.206938 Z M 53.026077 22.206938 " stroke="#ffffff" stroke-width="3.41428" stroke-opacity="1" stroke-miterlimit="4"/><g fill="#008000" fill-opacity="1"><g transform="translate(142.797309, 219.378381)"><g><path d="M 71.515625 -83.296875 L 71.515625 -33.3125 C 71.515625 -28.476562 70.597656 -23.914062 68.765625 -19.625 C 66.941406 -15.34375 64.40625 -11.578125 61.15625 -8.328125 C 57.90625 -5.078125 54.15625 -2.539062 49.90625 -0.71875 C 45.664062 1.101562 41.085938 2.015625 36.171875 2.015625 C 31.328125 2.015625 26.765625 1.101562 22.484375 -0.71875 C 18.203125 -2.539062 14.453125 -5.078125 11.234375 -8.328125 C 8.023438 -11.578125 5.507812 -15.34375 3.6875 -19.625 C 1.863281 -23.914062 0.953125 -28.476562 0.953125 -33.3125 C 0.953125 -38.226562 1.863281 -42.804688 3.6875 -47.046875 C 5.507812 -51.296875 8.023438 -55.046875 11.234375 -58.296875 C 14.453125 -61.554688 18.203125 -64.097656 22.484375 -65.921875 C 26.765625 -67.742188 31.328125 -68.65625 36.171875 -68.65625 L 40.578125 -68.65625 L 40.578125 -39.390625 L 36.171875 -39.390625 C 34.503906 -39.390625 33.09375 -38.789062 31.9375 -37.59375 C 30.789062 -36.40625 30.21875 -34.976562 30.21875 -33.3125 C 30.21875 -31.644531 30.789062 -30.21875 31.9375 -29.03125 C 33.09375 -27.84375 34.503906 -27.25 36.171875 -27.25 C 37.910156 -27.25 39.351562 -27.84375 40.5 -29.03125 C 41.65625 -30.21875 42.234375 -31.644531 42.234375 -33.3125 L 42.234375 -83.296875 Z M 71.515625 -83.296875 "/></g></g></g><g clip-path="url(#2ae7881b71)"><g clip-path="url(#d7d298c118)"><path fill="#000000" d="M 314.210938 203.96875 L 332.964844 203.96875 L 332.964844 222.722656 L 314.210938 222.722656 Z M 314.210938 203.96875 " fill-opacity="1" fill-rule="nonzero"/></g></g><g fill="#000000" fill-opacity="1"><g transform="translate(130.602013, 249.958536)"><g><path d="M 15.859375 -16.828125 L 19.25 -16.828125 L 19.25 0 L 15.671875 0 L 15.671875 -11.109375 L 11.65625 -5.484375 L 8.78125 -5.484375 L 4.71875 -10.9375 L 4.71875 0 L 1.109375 0 L 1.109375 -16.828125 L 4.53125 -16.828125 L 10.234375 -9.0625 Z M 15.859375 -16.828125 "/></g></g></g><g fill="#000000" fill-opacity="1"><g transform="translate(152.457869, 249.958536)"><g><path d="M 1.140625 -16.828125 L 11.65625 -16.828125 L 11.65625 -13.546875 L 4.75 -13.546875 L 4.75 -10.515625 L 10.828125 -10.515625 L 10.828125 -7.234375 L 4.75 -7.234375 L 4.75 -3.25 L 11.65625 -3.25 L 11.65625 0 L 1.140625 0 Z M 1.140625 -16.828125 "/></g></g></g><g fill="#000000" fill-opacity="1"><g transform="translate(166.743856, 249.958536)"><g><path d="M 7.921875 -16.828125 C 9.140625 -16.828125 10.21875 -16.601562 11.15625 -16.15625 C 12.09375 -15.71875 12.875 -15.117188 13.5 -14.359375 C 14.125 -13.597656 14.597656 -12.703125 14.921875 -11.671875 C 15.242188 -10.648438 15.40625 -9.5625 15.40625 -8.40625 C 15.40625 -7.226562 15.234375 -6.128906 14.890625 -5.109375 C 14.554688 -4.085938 14.085938 -3.195312 13.484375 -2.4375 C 12.878906 -1.6875 12.164062 -1.09375 11.34375 -0.65625 C 10.519531 -0.21875 9.625 0 8.65625 0 L 1.140625 0 L 1.140625 -16.828125 Z M 7.953125 -3.25 C 8.628906 -3.25 9.207031 -3.382812 9.6875 -3.65625 C 10.175781 -3.9375 10.578125 -4.3125 10.890625 -4.78125 C 11.210938 -5.257812 11.445312 -5.804688 11.59375 -6.421875 C 11.738281 -7.046875 11.8125 -7.695312 11.8125 -8.375 C 11.8125 -9.0625 11.738281 -9.71875 11.59375 -10.34375 C 11.457031 -10.96875 11.226562 -11.515625 10.90625 -11.984375 C 10.59375 -12.460938 10.191406 -12.84375 9.703125 -13.125 C 9.210938 -13.40625 8.628906 -13.546875 7.953125 -13.546875 L 4.75 -13.546875 L 4.75 -3.25 Z M 7.953125 -3.25 "/></g></g></g><g fill="#000000" fill-opacity="1"><g transform="translate(184.446959, 249.958536)"><g><path d="M 7.234375 -16.828125 L 7.234375 -13.796875 L 5.984375 -13.796875 L 5.984375 -3.015625 L 7.234375 -3.015625 L 7.234375 0 L 1.109375 0 L 1.109375 -3.015625 L 2.375 -3.015625 L 2.375 -13.796875 L 1.109375 -13.796875 L 1.109375 -16.828125 Z M 7.234375 -16.828125 "/></g></g></g><g fill="#000000" fill-opacity="1"><g transform="translate(194.271695, 249.958536)"><g><path d="M 9.046875 -3.28125 C 9.804688 -3.28125 10.546875 -3.453125 11.265625 -3.796875 C 11.992188 -4.140625 12.734375 -4.722656 13.484375 -5.546875 L 15.8125 -3.34375 C 14.875 -2.144531 13.804688 -1.234375 12.609375 -0.609375 C 11.421875 0.00390625 10.191406 0.3125 8.921875 0.3125 C 7.785156 0.3125 6.71875 0.078125 5.71875 -0.390625 C 4.71875 -0.859375 3.847656 -1.488281 3.109375 -2.28125 C 2.378906 -3.070312 1.804688 -3.992188 1.390625 -5.046875 C 0.972656 -6.097656 0.765625 -7.21875 0.765625 -8.40625 C 0.765625 -9.59375 0.976562 -10.707031 1.40625 -11.75 C 1.84375 -12.789062 2.429688 -13.707031 3.171875 -14.5 C 3.921875 -15.289062 4.800781 -15.914062 5.8125 -16.375 C 6.820312 -16.832031 7.898438 -17.0625 9.046875 -17.0625 C 10.109375 -17.0625 11.113281 -16.863281 12.0625 -16.46875 C 13.019531 -16.070312 13.957031 -15.414062 14.875 -14.5 L 12.796875 -11.96875 C 12.128906 -12.582031 11.5 -12.992188 10.90625 -13.203125 C 10.3125 -13.421875 9.691406 -13.53125 9.046875 -13.53125 C 8.390625 -13.53125 7.773438 -13.394531 7.203125 -13.125 C 6.628906 -12.851562 6.128906 -12.488281 5.703125 -12.03125 C 5.273438 -11.570312 4.9375 -11.03125 4.6875 -10.40625 C 4.4375 -9.78125 4.3125 -9.113281 4.3125 -8.40625 C 4.3125 -7.6875 4.4375 -7.019531 4.6875 -6.40625 C 4.9375 -5.789062 5.273438 -5.25 5.703125 -4.78125 C 6.128906 -4.3125 6.628906 -3.941406 7.203125 -3.671875 C 7.773438 -3.410156 8.390625 -3.28125 9.046875 -3.28125 Z M 9.046875 -3.28125 "/></g></g></g><g fill="#000000" fill-opacity="1"><g transform="translate(212.259557, 249.958536)"><g><path d="M 7.234375 -16.828125 L 7.234375 -13.796875 L 5.984375 -13.796875 L 5.984375 -3.015625 L 7.234375 -3.015625 L 7.234375 0 L 1.109375 0 L 1.109375 -3.015625 L 2.375 -3.015625 L 2.375 -13.796875 L 1.109375 -13.796875 L 1.109375 -16.828125 Z M 7.234375 -16.828125 "/></g></g></g><g fill="#000000" fill-opacity="1"><g transform="translate(222.084292, 249.958536)"><g><path d="M 12.625 -16.828125 L 16.203125 -16.828125 L 16.203125 0 L 12.796875 0 L 4.703125 -10.984375 L 4.703125 0 L 1.109375 0 L 1.109375 -16.828125 L 4.484375 -16.828125 L 12.625 -5.765625 Z M 12.625 -16.828125 "/></g></g></g><g fill="#000000" fill-opacity="1"><g transform="translate(240.902702, 249.958536)"><g><path d="M 1.140625 -16.828125 L 11.65625 -16.828125 L 11.65625 -13.546875 L 4.75 -13.546875 L 4.75 -10.515625 L 10.828125 -10.515625 L 10.828125 -7.234375 L 4.75 -7.234375 L 4.75 -3.25 L 11.65625 -3.25 L 11.65625 0 L 1.140625 0 Z M 1.140625 -16.828125 "/></g></g></g><path stroke-linecap="butt" transform="matrix(0.774054, 0.00422673, -0.00422673, 0.774054, 272.934536, 241.443836)" fill="none" stroke-linejoin="miter" d="M -0.00038774 2.000315 L 77.564006 2.000679 " stroke="#000000" stroke-width="4" stroke-opacity="1" stroke-miterlimit="4"/><path stroke-linecap="butt" transform="matrix(0.774054, -0.00423158, 0.00423158, 0.774054, 51.395281, 241.771669)" fill="none" stroke-linejoin="miter" d="M -0.00181308 2.000681 L 77.47679 2.000335 " stroke="#000000" stroke-width="4" stroke-opacity="1" stroke-miterlimit="4"/></svg>