<svg xmlns="http://www.w3.org/2000/svg" xmlns:xlink="http://www.w3.org/1999/xlink" width="500" zoomAndPan="magnify" viewBox="0 0 375 374.999991" height="500" preserveAspectRatio="xMidYMid meet" version="1.0"><defs><g/><clipPath id="87abb1d390"><path d="M 317.59375 192.820312 L 337.5 192.820312 L 337.5 212.726562 L 317.59375 212.726562 Z M 317.59375 192.820312 " clip-rule="nonzero"/></clipPath><clipPath id="62cf26ae96"><path d="M 327.546875 192.820312 C 322.046875 192.820312 317.59375 197.277344 317.59375 202.773438 C 317.59375 208.269531 322.046875 212.726562 327.546875 212.726562 C 333.042969 212.726562 337.5 208.269531 337.5 202.773438 C 337.5 197.277344 333.042969 192.820312 327.546875 192.820312 Z M 327.546875 192.820312 " clip-rule="nonzero"/></clipPath></defs><g fill="#000000" fill-opacity="1"><g transform="translate(37.213012, 209.258158)"><g><path d="M 72.234375 0 L 42.0625 0 L 42.0625 -35.875 C 42.0625 -37.800781 41.578125 -39.25 40.609375 -40.21875 C 39.640625 -41.1875 38.5 -41.671875 37.1875 -41.671875 C 35.882812 -41.671875 34.75 -41.207031 33.78125 -40.28125 C 32.8125 -39.363281 32.328125 -37.9375 32.328125 -36 L 32.328125 0 L 1.265625 0 L 1.265625 -37.25 C 1.265625 -43.90625 2.296875 -49.503906 4.359375 -54.046875 C 6.421875 -58.597656 9.195312 -62.257812 12.6875 -65.03125 C 16.1875 -67.8125 20.0625 -69.832031 24.3125 -71.09375 C 28.5625 -72.363281 32.875 -73 37.25 -73 C 40.789062 -73 44.285156 -72.390625 47.734375 -71.171875 C 51.191406 -69.953125 54.351562 -67.910156 57.21875 -65.046875 C 59.65625 -67.734375 62.660156 -69.707031 66.234375 -70.96875 C 69.816406 -72.238281 73.332031 -72.914062 76.78125 -73 C 81.25 -73 85.628906 -72.34375 89.921875 -71.03125 C 94.210938 -69.726562 98.101562 -67.664062 101.59375 -64.84375 C 105.09375 -62.03125 107.894531 -58.347656 110 -53.796875 C 112.101562 -49.253906 113.15625 -43.738281 113.15625 -37.25 L 113.15625 0 L 82.09375 0 L 82.09375 -36 C 82.09375 -37.9375 81.585938 -39.363281 80.578125 -40.28125 C 79.566406 -41.207031 78.425781 -41.671875 77.15625 -41.671875 C 75.894531 -41.671875 74.757812 -41.1875 73.75 -40.21875 C 72.738281 -39.25 72.234375 -37.800781 72.234375 -35.875 Z M 72.234375 0 "/></g></g></g><g fill="#000000" fill-opacity="1"><g transform="translate(318.792232, 141.4889)"><g><path d="M -72.234375 0 L -42.0625 0 L -42.0625 35.875 C -42.0625 37.800781 -41.578125 39.25 -40.609375 40.21875 C -39.640625 41.1875 -38.5 41.671875 -37.1875 41.671875 C -35.882812 41.671875 -34.75 41.207031 -33.78125 40.28125 C -32.8125 39.363281 -32.328125 37.9375 -32.328125 36 L -32.328125 0 L -1.265625 0 L -1.265625 37.25 C -1.265625 43.90625 -2.296875 49.503906 -4.359375 54.046875 C -6.421875 58.597656 -9.195312 62.257812 -12.6875 65.03125 C -16.1875 67.8125 -20.0625 69.832031 -24.3125 71.09375 C -28.5625 72.363281 -32.875 73 -37.25 73 C -40.789062 73 -44.285156 72.390625 -47.734375 71.171875 C -51.191406 69.953125 -54.351562 67.910156 -57.21875 65.046875 C -59.65625 67.734375 -62.660156 69.707031 -66.234375 70.96875 C -69.816406 72.238281 -73.332031 72.914062 -76.78125 73 C -81.25 73 -85.628906 72.34375 -89.921875 71.03125 C -94.210938 69.726562 -98.101562 67.664062 -101.59375 64.84375 C -105.09375 62.03125 -107.894531 58.347656 -110 53.796875 C -112.101562 49.253906 -113.15625 43.738281 -113.15625 37.25 L -113.15625 0 L -82.09375 0 L -82.09375 36 C -82.09375 37.9375 -81.585938 39.363281 -80.578125 40.28125 C -79.566406 41.207031 -78.425781 41.671875 -77.15625 41.671875 C -75.894531 41.671875 -74.757812 41.1875 -73.75 40.21875 C -72.738281 39.25 -72.234375 37.800781 -72.234375 35.875 Z M -72.234375 0 "/></g></g></g><path stroke-linecap="butt" transform="matrix(1.849803, 0, 0, 1.849803, 113.475568, 79.689516)" fill="none" stroke-linejoin="miter" d="M 53.025614 22.20778 L 53.025614 50.880599 C 53.025614 53.6575 52.497686 56.276022 51.44183 58.731943 C 50.396533 61.187863 48.941564 63.348144 47.074811 65.214897 C 45.208058 67.083762 43.056224 68.545066 40.623532 69.600922 C 38.188729 70.644108 35.56176 71.167812 32.738401 71.167812 C 29.959389 71.167812 27.342978 70.644108 24.887058 69.600922 C 22.431137 68.545066 20.281415 67.083762 18.435779 65.214897 C 16.590143 63.348144 15.145733 61.187863 14.100435 58.731943 C 13.05725 56.276022 12.533545 53.6575 12.533545 50.880599 C 12.533545 48.057241 13.05725 45.42816 14.100435 42.995469 C 15.145733 40.560665 16.590143 38.410943 18.435779 36.54419 C 20.281415 34.677437 22.431137 33.220356 24.887058 32.175059 C 27.342978 31.131873 29.959389 30.608169 32.738401 30.608169 L 35.272455 30.608169 L 35.272455 47.396275 L 32.738401 47.396275 C 31.781796 47.396275 30.970899 47.740484 30.303598 48.428902 C 29.648967 49.106762 29.321652 49.923994 29.321652 50.880599 C 29.321652 51.835093 29.648967 52.658661 30.303598 53.347079 C 30.970899 54.024938 31.781796 54.362812 32.738401 54.362812 C 33.739352 54.362812 34.567143 54.024938 35.221774 53.347079 C 35.889075 52.658661 36.222725 51.835093 36.222725 50.880599 L 36.222725 22.20778 Z M 53.025614 22.20778 " stroke="#ffffff" stroke-width="3.41428" stroke-opacity="1" stroke-miterlimit="4"/><g fill="#008000" fill-opacity="1"><g transform="translate(135.644299, 209.175715)"><g><path d="M 75.90625 -88.40625 L 75.90625 -35.359375 C 75.90625 -30.222656 74.9375 -25.378906 73 -20.828125 C 71.0625 -16.285156 68.363281 -12.285156 64.90625 -8.828125 C 61.457031 -5.378906 57.476562 -2.6875 52.96875 -0.75 C 48.46875 1.175781 43.609375 2.140625 38.390625 2.140625 C 33.253906 2.140625 28.410156 1.175781 23.859375 -0.75 C 19.316406 -2.6875 15.335938 -5.378906 11.921875 -8.828125 C 8.515625 -12.285156 5.84375 -16.285156 3.90625 -20.828125 C 1.976562 -25.378906 1.015625 -30.222656 1.015625 -35.359375 C 1.015625 -40.578125 1.976562 -45.4375 3.90625 -49.9375 C 5.84375 -54.445312 8.515625 -58.425781 11.921875 -61.875 C 15.335938 -65.332031 19.316406 -68.03125 23.859375 -69.96875 C 28.410156 -71.90625 33.253906 -72.875 38.390625 -72.875 L 43.0625 -72.875 L 43.0625 -41.796875 L 38.390625 -41.796875 C 36.617188 -41.796875 35.125 -41.164062 33.90625 -39.90625 C 32.6875 -38.644531 32.078125 -37.128906 32.078125 -35.359375 C 32.078125 -33.585938 32.6875 -32.070312 33.90625 -30.8125 C 35.125 -29.550781 36.617188 -28.921875 38.390625 -28.921875 C 40.242188 -28.921875 41.78125 -29.550781 43 -30.8125 C 44.21875 -32.070312 44.828125 -33.585938 44.828125 -35.359375 L 44.828125 -88.40625 Z M 75.90625 -88.40625 "/></g></g></g><g clip-path="url(#87abb1d390)"><g clip-path="url(#62cf26ae96)"><path fill="#000000" d="M 317.59375 192.820312 L 337.5 192.820312 L 337.5 212.726562 L 317.59375 212.726562 Z M 317.59375 192.820312 " fill-opacity="1" fill-rule="nonzero"/></g></g><g fill="#000000" fill-opacity="1"><g transform="translate(117.225181, 241.983392)"><g><path d="M 23.25 -17.859375 L 27.234375 -17.859375 L 22.1875 0 L 17.453125 0 L 13.78125 -12.015625 L 10.09375 0 L 5.421875 0 L 0.375 -17.859375 L 4.359375 -17.859375 L 7.890625 -4.359375 L 11.9375 -17.859375 L 15.609375 -17.859375 L 19.703125 -4.25 Z M 23.25 -17.859375 "/></g></g></g><g fill="#000000" fill-opacity="1"><g transform="translate(146.469638, 241.983392)"><g><path d="M 1.203125 -17.859375 L 12.359375 -17.859375 L 12.359375 -14.375 L 5.03125 -14.375 L 5.03125 -11.15625 L 11.484375 -11.15625 L 11.484375 -7.6875 L 5.03125 -7.6875 L 5.03125 -3.453125 L 12.359375 -3.453125 L 12.359375 0 L 1.203125 0 Z M 1.203125 -17.859375 "/></g></g></g><g fill="#000000" fill-opacity="1"><g transform="translate(161.633694, 241.983392)"><g><path d="M 5.015625 -3.453125 L 12.34375 -3.453125 L 12.34375 0 L 1.1875 0 L 1.1875 -17.859375 L 5.015625 -17.859375 Z M 5.015625 -3.453125 "/></g></g></g><g fill="#000000" fill-opacity="1"><g transform="translate(175.815388, 241.983392)"><g><path d="M 5.015625 -3.453125 L 12.34375 -3.453125 L 12.34375 0 L 1.1875 0 L 1.1875 -17.859375 L 5.015625 -17.859375 Z M 5.015625 -3.453125 "/></g></g></g><g fill="#000000" fill-opacity="1"><g transform="translate(189.99709, 241.983392)"><g><path d="M 13.40625 -17.859375 L 17.203125 -17.859375 L 17.203125 0 L 13.578125 0 L 4.984375 -11.65625 L 4.984375 0 L 1.1875 0 L 1.1875 -17.859375 L 4.765625 -17.859375 L 13.40625 -6.125 Z M 13.40625 -17.859375 "/></g></g></g><g fill="#000000" fill-opacity="1"><g transform="translate(209.972153, 241.983392)"><g><path d="M 1.203125 -17.859375 L 12.359375 -17.859375 L 12.359375 -14.375 L 5.03125 -14.375 L 5.03125 -11.15625 L 11.484375 -11.15625 L 11.484375 -7.6875 L 5.03125 -7.6875 L 5.03125 -3.453125 L 12.359375 -3.453125 L 12.359375 0 L 1.203125 0 Z M 1.203125 -17.859375 "/></g></g></g><g fill="#000000" fill-opacity="1"><g transform="translate(225.136212, 241.983392)"><g><path d="M 12.546875 -9.1875 C 13.242188 -8.769531 13.773438 -8.234375 14.140625 -7.578125 C 14.515625 -6.921875 14.703125 -6.164062 14.703125 -5.3125 C 14.703125 -4.507812 14.507812 -3.757812 14.125 -3.0625 C 13.738281 -2.363281 13.195312 -1.742188 12.5 -1.203125 C 11.851562 -0.722656 11.125 -0.351562 10.3125 -0.09375 C 9.5 0.164062 8.640625 0.304688 7.734375 0.328125 C 6.828125 0.328125 5.960938 0.203125 5.140625 -0.046875 C 4.316406 -0.296875 3.585938 -0.675781 2.953125 -1.1875 C 1.992188 -1.90625 1.335938 -2.773438 0.984375 -3.796875 L 4.515625 -5.4375 C 4.515625 -5.269531 4.570312 -5.0625 4.6875 -4.8125 C 4.800781 -4.5625 4.984375 -4.316406 5.234375 -4.078125 C 5.484375 -3.847656 5.8125 -3.644531 6.21875 -3.46875 C 6.625 -3.300781 7.117188 -3.21875 7.703125 -3.21875 C 8.171875 -3.21875 8.585938 -3.273438 8.953125 -3.390625 C 9.316406 -3.515625 9.617188 -3.664062 9.859375 -3.84375 C 10.097656 -4.019531 10.28125 -4.21875 10.40625 -4.4375 C 10.539062 -4.664062 10.609375 -4.898438 10.609375 -5.140625 C 10.609375 -5.410156 10.519531 -5.660156 10.34375 -5.890625 C 10.164062 -6.128906 9.890625 -6.316406 9.515625 -6.453125 C 8.847656 -6.679688 8.140625 -6.875 7.390625 -7.03125 C 6.640625 -7.195312 5.910156 -7.398438 5.203125 -7.640625 C 4.503906 -7.890625 3.851562 -8.210938 3.25 -8.609375 C 2.644531 -9.015625 2.164062 -9.578125 1.8125 -10.296875 C 1.488281 -10.941406 1.328125 -11.625 1.328125 -12.34375 C 1.328125 -13.144531 1.515625 -13.921875 1.890625 -14.671875 C 2.273438 -15.429688 2.796875 -16.070312 3.453125 -16.59375 C 4.066406 -17.082031 4.757812 -17.457031 5.53125 -17.71875 C 6.3125 -17.976562 7.128906 -18.109375 7.984375 -18.109375 C 8.835938 -18.109375 9.65625 -17.984375 10.4375 -17.734375 C 11.21875 -17.484375 11.921875 -17.113281 12.546875 -16.625 C 13.148438 -16.164062 13.628906 -15.632812 13.984375 -15.03125 L 11.109375 -13.078125 C 10.753906 -13.554688 10.3125 -13.941406 9.78125 -14.234375 C 9.25 -14.535156 8.660156 -14.6875 8.015625 -14.6875 C 7.109375 -14.6875 6.40625 -14.484375 5.90625 -14.078125 C 5.40625 -13.671875 5.15625 -13.144531 5.15625 -12.5 C 5.15625 -12.195312 5.296875 -11.925781 5.578125 -11.6875 C 5.859375 -11.445312 6.21875 -11.234375 6.65625 -11.046875 C 7.101562 -10.867188 7.601562 -10.707031 8.15625 -10.5625 C 8.707031 -10.425781 9.253906 -10.285156 9.796875 -10.140625 C 10.347656 -9.992188 10.867188 -9.84375 11.359375 -9.6875 C 11.847656 -9.539062 12.242188 -9.375 12.546875 -9.1875 Z M 12.546875 -9.1875 "/></g></g></g><g fill="#000000" fill-opacity="1"><g transform="translate(242.239788, 241.983392)"><g><path d="M 12.546875 -9.1875 C 13.242188 -8.769531 13.773438 -8.234375 14.140625 -7.578125 C 14.515625 -6.921875 14.703125 -6.164062 14.703125 -5.3125 C 14.703125 -4.507812 14.507812 -3.757812 14.125 -3.0625 C 13.738281 -2.363281 13.195312 -1.742188 12.5 -1.203125 C 11.851562 -0.722656 11.125 -0.351562 10.3125 -0.09375 C 9.5 0.164062 8.640625 0.304688 7.734375 0.328125 C 6.828125 0.328125 5.960938 0.203125 5.140625 -0.046875 C 4.316406 -0.296875 3.585938 -0.675781 2.953125 -1.1875 C 1.992188 -1.90625 1.335938 -2.773438 0.984375 -3.796875 L 4.515625 -5.4375 C 4.515625 -5.269531 4.570312 -5.0625 4.6875 -4.8125 C 4.800781 -4.5625 4.984375 -4.316406 5.234375 -4.078125 C 5.484375 -3.847656 5.8125 -3.644531 6.21875 -3.46875 C 6.625 -3.300781 7.117188 -3.21875 7.703125 -3.21875 C 8.171875 -3.21875 8.585938 -3.273438 8.953125 -3.390625 C 9.316406 -3.515625 9.617188 -3.664062 9.859375 -3.84375 C 10.097656 -4.019531 10.28125 -4.21875 10.40625 -4.4375 C 10.539062 -4.664062 10.609375 -4.898438 10.609375 -5.140625 C 10.609375 -5.410156 10.519531 -5.660156 10.34375 -5.890625 C 10.164062 -6.128906 9.890625 -6.316406 9.515625 -6.453125 C 8.847656 -6.679688 8.140625 -6.875 7.390625 -7.03125 C 6.640625 -7.195312 5.910156 -7.398438 5.203125 -7.640625 C 4.503906 -7.890625 3.851562 -8.210938 3.25 -8.609375 C 2.644531 -9.015625 2.164062 -9.578125 1.8125 -10.296875 C 1.488281 -10.941406 1.328125 -11.625 1.328125 -12.34375 C 1.328125 -13.144531 1.515625 -13.921875 1.890625 -14.671875 C 2.273438 -15.429688 2.796875 -16.070312 3.453125 -16.59375 C 4.066406 -17.082031 4.757812 -17.457031 5.53125 -17.71875 C 6.3125 -17.976562 7.128906 -18.109375 7.984375 -18.109375 C 8.835938 -18.109375 9.65625 -17.984375 10.4375 -17.734375 C 11.21875 -17.484375 11.921875 -17.113281 12.546875 -16.625 C 13.148438 -16.164062 13.628906 -15.632812 13.984375 -15.03125 L 11.109375 -13.078125 C 10.753906 -13.554688 10.3125 -13.941406 9.78125 -14.234375 C 9.25 -14.535156 8.660156 -14.6875 8.015625 -14.6875 C 7.109375 -14.6875 6.40625 -14.484375 5.90625 -14.078125 C 5.40625 -13.671875 5.15625 -13.144531 5.15625 -12.5 C 5.15625 -12.195312 5.296875 -11.925781 5.578125 -11.6875 C 5.859375 -11.445312 6.21875 -11.234375 6.65625 -11.046875 C 7.101562 -10.867188 7.601562 -10.707031 8.15625 -10.5625 C 8.707031 -10.425781 9.253906 -10.285156 9.796875 -10.140625 C 10.347656 -9.992188 10.867188 -9.84375 11.359375 -9.6875 C 11.847656 -9.539062 12.242188 -9.375 12.546875 -9.1875 Z M 12.546875 -9.1875 "/></g></g></g><path stroke-linecap="butt" transform="matrix(0.75, 0.000000000000001087, -0.000000000000001087, 0.75, 278.680534, 233.088618)" fill="none" stroke-linejoin="miter" d="M -0.00112893 2.001634 L 78.42596 2.001634 " stroke="#000000" stroke-width="4" stroke-opacity="1" stroke-miterlimit="4"/><path stroke-linecap="butt" transform="matrix(0.75, 0, 0, 0.75, 37.500002, 233.088618)" fill="none" stroke-linejoin="miter" d="M -0.00000271667 2.001634 L 78.427086 2.001634 " stroke="#000000" stroke-width="4" stroke-opacity="1" stroke-miterlimit="4"/></svg>