<svg xmlns="http://www.w3.org/2000/svg" xmlns:xlink="http://www.w3.org/1999/xlink" width="500" zoomAndPan="magnify" viewBox="0 0 375 374.999991" height="500" preserveAspectRatio="xMidYMid meet" version="1.0"><defs><g/><clipPath id="a6cebf05ba"><path d="M 323.660156 205.5 L 344.160156 205.5 L 344.160156 225.996094 L 323.660156 225.996094 Z M 323.660156 205.5 " clip-rule="nonzero"/></clipPath><clipPath id="f9849cf186"><path d="M 333.910156 205.5 C 328.25 205.5 323.660156 210.089844 323.660156 215.75 C 323.660156 221.410156 328.25 225.996094 333.910156 225.996094 C 339.570312 225.996094 344.160156 221.410156 344.160156 215.75 C 344.160156 210.089844 339.570312 205.5 333.910156 205.5 Z M 333.910156 205.5 " clip-rule="nonzero"/></clipPath></defs><rect x="-37.5" width="450" fill="#ffffff" y="-37.499999" height="449.999989" fill-opacity="1"/><rect x="-37.5" width="450" fill="#f4558b" y="-37.499999" height="449.999989" fill-opacity="1"/><g fill="#000000" fill-opacity="1"><g transform="translate(34.973678, 222.425385)"><g><path d="M 74.390625 0 L 43.3125 0 L 43.3125 -36.9375 C 43.3125 -38.925781 42.8125 -40.421875 41.8125 -41.421875 C 40.8125 -42.421875 39.640625 -42.921875 38.296875 -42.921875 C 36.953125 -42.921875 35.78125 -42.441406 34.78125 -41.484375 C 33.789062 -40.523438 33.296875 -39.050781 33.296875 -37.0625 L 33.296875 0 L 1.296875 0 L 1.296875 -38.359375 C 1.296875 -45.210938 2.359375 -50.976562 4.484375 -55.65625 C 6.609375 -60.34375 9.46875 -64.113281 13.0625 -66.96875 C 16.664062 -69.832031 20.65625 -71.914062 25.03125 -73.21875 C 29.40625 -74.519531 33.847656 -75.171875 38.359375 -75.171875 C 42.003906 -75.171875 45.601562 -74.539062 49.15625 -73.28125 C 52.707031 -72.019531 55.957031 -69.914062 58.90625 -66.96875 C 61.425781 -69.75 64.523438 -71.785156 68.203125 -73.078125 C 71.890625 -74.378906 75.507812 -75.078125 79.0625 -75.171875 C 83.664062 -75.171875 88.175781 -74.5 92.59375 -73.15625 C 97.007812 -71.8125 101.015625 -69.6875 104.609375 -66.78125 C 108.210938 -63.875 111.097656 -60.078125 113.265625 -55.390625 C 115.429688 -50.710938 116.515625 -45.035156 116.515625 -38.359375 L 116.515625 0 L 84.53125 0 L 84.53125 -37.0625 C 84.53125 -39.050781 84.007812 -40.523438 82.96875 -41.484375 C 81.925781 -42.441406 80.753906 -42.921875 79.453125 -42.921875 C 78.160156 -42.921875 76.992188 -42.421875 75.953125 -41.421875 C 74.910156 -40.421875 74.390625 -38.925781 74.390625 -36.9375 Z M 74.390625 0 "/></g></g></g><g fill="#000000" fill-opacity="1"><g transform="translate(324.889982, 152.651414)"><g><path d="M -74.390625 0 L -43.3125 0 L -43.3125 36.9375 C -43.3125 38.925781 -42.8125 40.421875 -41.8125 41.421875 C -40.8125 42.421875 -39.640625 42.921875 -38.296875 42.921875 C -36.953125 42.921875 -35.78125 42.441406 -34.78125 41.484375 C -33.789062 40.523438 -33.296875 39.050781 -33.296875 37.0625 L -33.296875 0 L -1.296875 0 L -1.296875 38.359375 C -1.296875 45.210938 -2.359375 50.976562 -4.484375 55.65625 C -6.609375 60.34375 -9.46875 64.113281 -13.0625 66.96875 C -16.664062 69.832031 -20.65625 71.914062 -25.03125 73.21875 C -29.40625 74.519531 -33.847656 75.171875 -38.359375 75.171875 C -42.003906 75.171875 -45.601562 74.539062 -49.15625 73.28125 C -52.707031 72.019531 -55.957031 69.914062 -58.90625 66.96875 C -61.425781 69.75 -64.523438 71.785156 -68.203125 73.078125 C -71.890625 74.378906 -75.507812 75.078125 -79.0625 75.171875 C -83.664062 75.171875 -88.175781 74.5 -92.59375 73.15625 C -97.007812 71.8125 -101.015625 69.6875 -104.609375 66.78125 C -108.210938 63.875 -111.097656 60.078125 -113.265625 55.390625 C -115.429688 50.710938 -116.515625 45.035156 -116.515625 38.359375 L -116.515625 0 L -84.53125 0 L -84.53125 37.0625 C -84.53125 39.050781 -84.007812 40.523438 -82.96875 41.484375 C -81.925781 42.441406 -80.753906 42.921875 -79.453125 42.921875 C -78.160156 42.921875 -76.992188 42.421875 -75.953125 41.421875 C -74.910156 40.421875 -74.390625 38.925781 -74.390625 36.9375 Z M -74.390625 0 "/></g></g></g><path stroke-linecap="butt" transform="matrix(1.904619, 0, 0, 1.904619, 113.496179, 89.01712)" fill="none" stroke-linejoin="miter" d="M 53.024818 22.206735 L 53.024818 50.878801 C 53.024818 53.657817 52.497728 56.27481 51.441497 58.73183 C 50.397571 61.186798 48.941408 63.348483 47.075057 65.214834 C 45.206656 67.083235 43.057276 68.543501 40.622817 69.599732 C 38.190408 70.643658 35.56111 71.166646 32.739024 71.166646 C 29.960008 71.166646 27.343015 70.643658 24.885996 69.599732 C 22.431027 68.543501 20.279596 67.083235 18.435806 65.214834 C 16.589965 63.348483 15.146107 61.186798 14.102181 58.73183 C 13.056205 56.27481 12.535267 53.657817 12.535267 50.878801 C 12.535267 48.056715 13.056205 45.429468 14.102181 42.995008 C 15.146107 40.560549 16.589965 38.41117 18.435806 36.542768 C 20.279596 34.676418 22.431027 33.220254 24.885996 32.176328 C 27.343015 31.130352 29.960008 30.609414 32.739024 30.609414 L 35.271928 30.609414 L 35.271928 47.396314 L 32.739024 47.396314 C 31.783289 47.396314 30.971119 47.740871 30.304565 48.429985 C 29.648266 49.106793 29.320116 49.923065 29.320116 50.878801 C 29.320116 51.834537 29.648266 52.656961 30.304565 53.346075 C 30.971119 54.024935 31.783289 54.363339 32.739024 54.363339 C 33.737829 54.363339 34.566407 54.024935 35.222706 53.346075 C 35.88926 52.656961 36.221511 51.834537 36.221511 50.878801 L 36.221511 22.206735 Z M 53.024818 22.206735 " stroke="#f4558b" stroke-width="3.41428" stroke-opacity="1" stroke-miterlimit="4"/><g fill="#008000" fill-opacity="1"><g transform="translate(136.321853, 222.340483)"><g><path d="M 78.15625 -91.03125 L 78.15625 -36.40625 C 78.15625 -31.125 77.15625 -26.140625 75.15625 -21.453125 C 73.164062 -16.773438 70.394531 -12.65625 66.84375 -9.09375 C 63.289062 -5.539062 59.191406 -2.769531 54.546875 -0.78125 C 49.910156 1.207031 44.90625 2.203125 39.53125 2.203125 C 34.238281 2.203125 29.253906 1.207031 24.578125 -0.78125 C 19.898438 -2.769531 15.800781 -5.539062 12.28125 -9.09375 C 8.769531 -12.65625 6.019531 -16.773438 4.03125 -21.453125 C 2.039062 -26.140625 1.046875 -31.125 1.046875 -36.40625 C 1.046875 -41.78125 2.039062 -46.785156 4.03125 -51.421875 C 6.019531 -56.066406 8.769531 -60.164062 12.28125 -63.71875 C 15.800781 -67.28125 19.898438 -70.054688 24.578125 -72.046875 C 29.253906 -74.035156 34.238281 -75.03125 39.53125 -75.03125 L 44.34375 -75.03125 L 44.34375 -43.046875 L 39.53125 -43.046875 C 37.707031 -43.046875 36.164062 -42.394531 34.90625 -41.09375 C 33.65625 -39.789062 33.03125 -38.226562 33.03125 -36.40625 C 33.03125 -34.59375 33.65625 -33.035156 34.90625 -31.734375 C 36.164062 -30.429688 37.707031 -29.78125 39.53125 -29.78125 C 41.4375 -29.78125 43.019531 -30.429688 44.28125 -31.734375 C 45.539062 -33.035156 46.171875 -34.59375 46.171875 -36.40625 L 46.171875 -91.03125 Z M 78.15625 -91.03125 "/></g></g></g><g clip-path="url(#a6cebf05ba)"><g clip-path="url(#f9849cf186)"><path fill="#000000" d="M 323.660156 205.5 L 344.160156 205.5 L 344.160156 225.996094 L 323.660156 225.996094 Z M 323.660156 205.5 " fill-opacity="1" fill-rule="nonzero"/></g></g><g fill="#000000" fill-opacity="1"><g transform="translate(65.017276, 257.41991)"><g><path d="M 18.078125 -18.34375 C 18.429688 -18.332031 18.726562 -18.207031 18.96875 -17.96875 C 19.21875 -17.726562 19.34375 -17.4375 19.34375 -17.09375 L 19.34375 -1.25 C 19.34375 -0.90625 19.222656 -0.609375 18.984375 -0.359375 C 18.753906 -0.117188 18.445312 0 18.0625 0 C 17.675781 0 17.359375 -0.113281 17.109375 -0.34375 C 16.867188 -0.582031 16.75 -0.882812 16.75 -1.25 L 16.75 -13.375 L 11.671875 -5.671875 C 11.546875 -5.515625 11.390625 -5.382812 11.203125 -5.28125 C 11.023438 -5.175781 10.84375 -5.132812 10.65625 -5.15625 C 10.476562 -5.132812 10.296875 -5.175781 10.109375 -5.28125 C 9.929688 -5.382812 9.78125 -5.515625 9.65625 -5.671875 L 4.546875 -13.609375 L 4.546875 -1.25 C 4.546875 -0.882812 4.4375 -0.582031 4.21875 -0.34375 C 4.007812 -0.113281 3.71875 0 3.34375 0 C 3 0 2.71875 -0.113281 2.5 -0.34375 C 2.28125 -0.582031 2.171875 -0.882812 2.171875 -1.25 L 2.171875 -17.09375 C 2.171875 -17.425781 2.289062 -17.71875 2.53125 -17.96875 C 2.78125 -18.21875 3.085938 -18.34375 3.453125 -18.34375 C 3.660156 -18.34375 3.863281 -18.289062 4.0625 -18.1875 C 4.269531 -18.082031 4.429688 -17.941406 4.546875 -17.765625 L 10.75 -8.375 L 17.03125 -17.765625 C 17.3125 -18.148438 17.660156 -18.34375 18.078125 -18.34375 Z M 18.078125 -18.34375 "/></g></g></g><g fill="#000000" fill-opacity="1"><g transform="translate(90.969436, 257.41991)"><g><path d="M 12.0625 -13.84375 C 12.425781 -13.84375 12.726562 -13.71875 12.96875 -13.46875 C 13.207031 -13.226562 13.328125 -12.9375 13.328125 -12.59375 L 13.328125 -1.28125 C 13.328125 0.894531 12.722656 2.523438 11.515625 3.609375 C 10.304688 4.691406 8.71875 5.234375 6.75 5.234375 C 6.101562 5.234375 5.46875 5.171875 4.84375 5.046875 C 4.21875 4.929688 3.703125 4.765625 3.296875 4.546875 C 2.648438 4.253906 2.328125 3.851562 2.328125 3.34375 C 2.328125 3.257812 2.34375 3.148438 2.375 3.015625 C 2.476562 2.710938 2.625 2.484375 2.8125 2.328125 C 3.007812 2.171875 3.234375 2.09375 3.484375 2.09375 C 3.617188 2.09375 3.75 2.117188 3.875 2.171875 C 4.414062 2.410156 4.894531 2.597656 5.3125 2.734375 C 5.726562 2.878906 6.21875 2.953125 6.78125 2.953125 C 9.476562 2.953125 10.828125 1.566406 10.828125 -1.203125 L 10.828125 -1.734375 C 10.359375 -1.097656 9.753906 -0.601562 9.015625 -0.25 C 8.273438 0.09375 7.425781 0.265625 6.46875 0.265625 C 5.019531 0.265625 3.890625 -0.195312 3.078125 -1.125 C 2.265625 -2.050781 1.859375 -3.265625 1.859375 -4.765625 L 1.859375 -12.59375 C 1.859375 -12.957031 1.96875 -13.253906 2.1875 -13.484375 C 2.414062 -13.722656 2.71875 -13.84375 3.09375 -13.84375 C 3.457031 -13.84375 3.753906 -13.71875 3.984375 -13.46875 C 4.222656 -13.226562 4.34375 -12.9375 4.34375 -12.59375 L 4.34375 -5.421875 C 4.34375 -4.265625 4.59375 -3.410156 5.09375 -2.859375 C 5.601562 -2.316406 6.375 -2.046875 7.40625 -2.046875 C 8.40625 -2.046875 9.222656 -2.359375 9.859375 -2.984375 C 10.503906 -3.609375 10.828125 -4.421875 10.828125 -5.421875 L 10.828125 -12.59375 C 10.828125 -12.957031 10.941406 -13.253906 11.171875 -13.484375 C 11.398438 -13.722656 11.695312 -13.84375 12.0625 -13.84375 Z M 12.0625 -13.84375 "/></g></g></g><g fill="#000000" fill-opacity="1"><g transform="translate(110.565028, 257.41991)"><g/></g></g><g fill="#000000" fill-opacity="1"><g transform="translate(122.260702, 257.41991)"><g><path d="M 9.859375 -18.328125 C 11.503906 -18.328125 12.910156 -17.914062 14.078125 -17.09375 C 15.242188 -16.269531 16.125 -15.164062 16.71875 -13.78125 C 17.3125 -12.394531 17.609375 -10.851562 17.609375 -9.15625 C 17.609375 -7.445312 17.3125 -5.898438 16.71875 -4.515625 C 16.125 -3.128906 15.242188 -2.03125 14.078125 -1.21875 C 12.910156 -0.40625 11.503906 0 9.859375 0 L 3.421875 0 C 3.078125 0 2.78125 -0.117188 2.53125 -0.359375 C 2.289062 -0.609375 2.171875 -0.90625 2.171875 -1.25 L 2.171875 -17.0625 C 2.171875 -17.414062 2.289062 -17.710938 2.53125 -17.953125 C 2.78125 -18.203125 3.078125 -18.328125 3.421875 -18.328125 Z M 9.609375 -2.40625 C 11.390625 -2.40625 12.722656 -3.035156 13.609375 -4.296875 C 14.492188 -5.566406 14.9375 -7.1875 14.9375 -9.15625 C 14.9375 -11.113281 14.488281 -12.726562 13.59375 -14 C 12.695312 -15.269531 11.367188 -15.90625 9.609375 -15.90625 L 4.765625 -15.90625 L 4.765625 -2.40625 Z M 9.609375 -2.40625 "/></g></g></g><g fill="#000000" fill-opacity="1"><g transform="translate(145.466197, 257.41991)"><g><path d="M 12.984375 -13.890625 C 13.347656 -13.890625 13.644531 -13.769531 13.875 -13.53125 C 14.113281 -13.300781 14.234375 -12.992188 14.234375 -12.609375 L 14.234375 -1.25 C 14.234375 -0.90625 14.113281 -0.609375 13.875 -0.359375 C 13.644531 -0.117188 13.347656 0 12.984375 0 C 12.617188 0 12.320312 -0.113281 12.09375 -0.34375 C 11.863281 -0.582031 11.75 -0.882812 11.75 -1.25 L 11.75 -1.9375 C 11.300781 -1.320312 10.679688 -0.800781 9.890625 -0.375 C 9.109375 0.0507812 8.265625 0.265625 7.359375 0.265625 C 6.171875 0.265625 5.09375 -0.0390625 4.125 -0.65625 C 3.15625 -1.269531 2.394531 -2.117188 1.84375 -3.203125 C 1.289062 -4.296875 1.015625 -5.523438 1.015625 -6.890625 C 1.015625 -8.242188 1.289062 -9.46875 1.84375 -10.5625 C 2.394531 -11.65625 3.148438 -12.503906 4.109375 -13.109375 C 5.066406 -13.722656 6.125 -14.03125 7.28125 -14.03125 C 8.195312 -14.03125 9.050781 -13.835938 9.84375 -13.453125 C 10.644531 -13.066406 11.28125 -12.578125 11.75 -11.984375 L 11.75 -12.609375 C 11.75 -12.984375 11.863281 -13.289062 12.09375 -13.53125 C 12.320312 -13.769531 12.617188 -13.890625 12.984375 -13.890625 Z M 7.640625 -2.046875 C 8.460938 -2.046875 9.191406 -2.253906 9.828125 -2.671875 C 10.460938 -3.085938 10.957031 -3.660156 11.3125 -4.390625 C 11.675781 -5.128906 11.859375 -5.960938 11.859375 -6.890625 C 11.859375 -7.796875 11.675781 -8.613281 11.3125 -9.34375 C 10.957031 -10.070312 10.460938 -10.648438 9.828125 -11.078125 C 9.191406 -11.503906 8.460938 -11.71875 7.640625 -11.71875 C 6.816406 -11.71875 6.085938 -11.507812 5.453125 -11.09375 C 4.816406 -10.675781 4.316406 -10.097656 3.953125 -9.359375 C 3.597656 -8.628906 3.421875 -7.804688 3.421875 -6.890625 C 3.421875 -5.960938 3.597656 -5.128906 3.953125 -4.390625 C 4.316406 -3.660156 4.816406 -3.085938 5.453125 -2.671875 C 6.085938 -2.253906 6.816406 -2.046875 7.640625 -2.046875 Z M 7.640625 -2.046875 "/></g></g></g><g fill="#000000" fill-opacity="1"><g transform="translate(165.977365, 257.41991)"><g><path d="M 17.875 -13.84375 C 18.207031 -13.84375 18.488281 -13.722656 18.71875 -13.484375 C 18.957031 -13.253906 19.078125 -12.957031 19.078125 -12.59375 C 19.078125 -12.46875 19.039062 -12.300781 18.96875 -12.09375 L 14.96875 -0.78125 C 14.863281 -0.5 14.6875 -0.289062 14.4375 -0.15625 C 14.195312 -0.0195312 13.9375 0.03125 13.65625 0 C 13.1875 -0.03125 12.832031 -0.289062 12.59375 -0.78125 L 9.859375 -7.90625 L 7.359375 -0.78125 C 7.253906 -0.539062 7.101562 -0.351562 6.90625 -0.21875 C 6.71875 -0.09375 6.507812 -0.0195312 6.28125 0 C 6.019531 0.03125 5.757812 -0.0234375 5.5 -0.171875 C 5.25 -0.316406 5.082031 -0.519531 5 -0.78125 L 0.9375 -12.09375 C 0.882812 -12.25 0.859375 -12.414062 0.859375 -12.59375 C 0.859375 -12.9375 0.972656 -13.226562 1.203125 -13.46875 C 1.429688 -13.71875 1.726562 -13.84375 2.09375 -13.84375 C 2.6875 -13.84375 3.070312 -13.582031 3.25 -13.0625 L 6.359375 -4.234375 L 8.84375 -10.75 C 9.050781 -11.28125 9.4375 -11.546875 10 -11.546875 C 10.519531 -11.546875 10.878906 -11.28125 11.078125 -10.75 L 13.609375 -4.34375 L 16.671875 -13.0625 C 16.859375 -13.582031 17.257812 -13.84375 17.875 -13.84375 Z M 17.875 -13.84375 "/></g></g></g><g fill="#000000" fill-opacity="1"><g transform="translate(190.333832, 257.41991)"><g><path d="M 12.984375 -13.890625 C 13.347656 -13.890625 13.644531 -13.769531 13.875 -13.53125 C 14.113281 -13.300781 14.234375 -12.992188 14.234375 -12.609375 L 14.234375 -1.25 C 14.234375 -0.90625 14.113281 -0.609375 13.875 -0.359375 C 13.644531 -0.117188 13.347656 0 12.984375 0 C 12.617188 0 12.320312 -0.113281 12.09375 -0.34375 C 11.863281 -0.582031 11.75 -0.882812 11.75 -1.25 L 11.75 -1.9375 C 11.300781 -1.320312 10.679688 -0.800781 9.890625 -0.375 C 9.109375 0.0507812 8.265625 0.265625 7.359375 0.265625 C 6.171875 0.265625 5.09375 -0.0390625 4.125 -0.65625 C 3.15625 -1.269531 2.394531 -2.117188 1.84375 -3.203125 C 1.289062 -4.296875 1.015625 -5.523438 1.015625 -6.890625 C 1.015625 -8.242188 1.289062 -9.46875 1.84375 -10.5625 C 2.394531 -11.65625 3.148438 -12.503906 4.109375 -13.109375 C 5.066406 -13.722656 6.125 -14.03125 7.28125 -14.03125 C 8.195312 -14.03125 9.050781 -13.835938 9.84375 -13.453125 C 10.644531 -13.066406 11.28125 -12.578125 11.75 -11.984375 L 11.75 -12.609375 C 11.75 -12.984375 11.863281 -13.289062 12.09375 -13.53125 C 12.320312 -13.769531 12.617188 -13.890625 12.984375 -13.890625 Z M 7.640625 -2.046875 C 8.460938 -2.046875 9.191406 -2.253906 9.828125 -2.671875 C 10.460938 -3.085938 10.957031 -3.660156 11.3125 -4.390625 C 11.675781 -5.128906 11.859375 -5.960938 11.859375 -6.890625 C 11.859375 -7.796875 11.675781 -8.613281 11.3125 -9.34375 C 10.957031 -10.070312 10.460938 -10.648438 9.828125 -11.078125 C 9.191406 -11.503906 8.460938 -11.71875 7.640625 -11.71875 C 6.816406 -11.71875 6.085938 -11.507812 5.453125 -11.09375 C 4.816406 -10.675781 4.316406 -10.097656 3.953125 -9.359375 C 3.597656 -8.628906 3.421875 -7.804688 3.421875 -6.890625 C 3.421875 -5.960938 3.597656 -5.128906 3.953125 -4.390625 C 4.316406 -3.660156 4.816406 -3.085938 5.453125 -2.671875 C 6.085938 -2.253906 6.816406 -2.046875 7.640625 -2.046875 Z M 7.640625 -2.046875 "/></g></g></g><g fill="#000000" fill-opacity="1"><g transform="translate(210.844993, 257.41991)"><g><path d="M 4.21875 -1.25 C 4.21875 -0.90625 4.097656 -0.609375 3.859375 -0.359375 C 3.617188 -0.117188 3.316406 0 2.953125 0 C 2.609375 0 2.316406 -0.117188 2.078125 -0.359375 C 1.847656 -0.609375 1.734375 -0.90625 1.734375 -1.25 L 1.734375 -12.59375 C 1.734375 -12.9375 1.847656 -13.226562 2.078125 -13.46875 C 2.316406 -13.71875 2.609375 -13.84375 2.953125 -13.84375 C 3.316406 -13.84375 3.617188 -13.71875 3.859375 -13.46875 C 4.097656 -13.226562 4.21875 -12.9375 4.21875 -12.59375 Z M 2.953125 -15.578125 C 2.441406 -15.578125 2.078125 -15.664062 1.859375 -15.84375 C 1.640625 -16.03125 1.53125 -16.320312 1.53125 -16.71875 L 1.53125 -17.140625 C 1.53125 -17.554688 1.648438 -17.851562 1.890625 -18.03125 C 2.128906 -18.207031 2.488281 -18.296875 2.96875 -18.296875 C 3.457031 -18.296875 3.8125 -18.203125 4.03125 -18.015625 C 4.25 -17.835938 4.359375 -17.546875 4.359375 -17.140625 L 4.359375 -16.71875 C 4.359375 -16.300781 4.242188 -16.003906 4.015625 -15.828125 C 3.796875 -15.660156 3.441406 -15.578125 2.953125 -15.578125 Z M 2.953125 -15.578125 "/></g></g></g><g fill="#000000" fill-opacity="1"><g transform="translate(221.23272, 257.41991)"><g/></g></g><g fill="#000000" fill-opacity="1"><g transform="translate(232.92839, 257.41991)"><g><path d="M 23.03125 -18.40625 C 23.363281 -18.40625 23.664062 -18.28125 23.9375 -18.03125 C 24.21875 -17.789062 24.359375 -17.46875 24.359375 -17.0625 C 24.359375 -16.925781 24.332031 -16.78125 24.28125 -16.625 L 18.875 -0.78125 C 18.800781 -0.539062 18.65625 -0.351562 18.4375 -0.21875 C 18.21875 -0.09375 17.988281 -0.0195312 17.75 0 C 17.5 0 17.257812 -0.0664062 17.03125 -0.203125 C 16.8125 -0.347656 16.648438 -0.550781 16.546875 -0.8125 L 12.453125 -10.359375 L 8.40625 -0.8125 C 8.300781 -0.550781 8.132812 -0.347656 7.90625 -0.203125 C 7.675781 -0.0664062 7.429688 0 7.171875 0 C 6.929688 -0.0195312 6.703125 -0.0976562 6.484375 -0.234375 C 6.273438 -0.367188 6.140625 -0.550781 6.078125 -0.78125 L 0.65625 -16.625 C 0.601562 -16.78125 0.578125 -16.925781 0.578125 -17.0625 C 0.578125 -17.445312 0.71875 -17.765625 1 -18.015625 C 1.289062 -18.273438 1.601562 -18.40625 1.9375 -18.40625 C 2.21875 -18.40625 2.46875 -18.328125 2.6875 -18.171875 C 2.914062 -18.023438 3.066406 -17.832031 3.140625 -17.59375 L 7.5625 -4.46875 L 11.359375 -13.796875 C 11.460938 -14.035156 11.617188 -14.222656 11.828125 -14.359375 C 12.035156 -14.503906 12.269531 -14.578125 12.53125 -14.578125 C 12.789062 -14.578125 13.023438 -14.503906 13.234375 -14.359375 C 13.453125 -14.222656 13.613281 -14.035156 13.71875 -13.796875 L 17.40625 -4.46875 L 21.796875 -17.59375 C 21.867188 -17.851562 22.019531 -18.050781 22.25 -18.1875 C 22.476562 -18.332031 22.738281 -18.40625 23.03125 -18.40625 Z M 23.03125 -18.40625 "/></g></g></g><g fill="#000000" fill-opacity="1"><g transform="translate(262.307326, 257.41991)"><g><path d="M 12.984375 -13.890625 C 13.347656 -13.890625 13.644531 -13.769531 13.875 -13.53125 C 14.113281 -13.300781 14.234375 -12.992188 14.234375 -12.609375 L 14.234375 -1.25 C 14.234375 -0.90625 14.113281 -0.609375 13.875 -0.359375 C 13.644531 -0.117188 13.347656 0 12.984375 0 C 12.617188 0 12.320312 -0.113281 12.09375 -0.34375 C 11.863281 -0.582031 11.75 -0.882812 11.75 -1.25 L 11.75 -1.9375 C 11.300781 -1.320312 10.679688 -0.800781 9.890625 -0.375 C 9.109375 0.0507812 8.265625 0.265625 7.359375 0.265625 C 6.171875 0.265625 5.09375 -0.0390625 4.125 -0.65625 C 3.15625 -1.269531 2.394531 -2.117188 1.84375 -3.203125 C 1.289062 -4.296875 1.015625 -5.523438 1.015625 -6.890625 C 1.015625 -8.242188 1.289062 -9.46875 1.84375 -10.5625 C 2.394531 -11.65625 3.148438 -12.503906 4.109375 -13.109375 C 5.066406 -13.722656 6.125 -14.03125 7.28125 -14.03125 C 8.195312 -14.03125 9.050781 -13.835938 9.84375 -13.453125 C 10.644531 -13.066406 11.28125 -12.578125 11.75 -11.984375 L 11.75 -12.609375 C 11.75 -12.984375 11.863281 -13.289062 12.09375 -13.53125 C 12.320312 -13.769531 12.617188 -13.890625 12.984375 -13.890625 Z M 7.640625 -2.046875 C 8.460938 -2.046875 9.191406 -2.253906 9.828125 -2.671875 C 10.460938 -3.085938 10.957031 -3.660156 11.3125 -4.390625 C 11.675781 -5.128906 11.859375 -5.960938 11.859375 -6.890625 C 11.859375 -7.796875 11.675781 -8.613281 11.3125 -9.34375 C 10.957031 -10.070312 10.460938 -10.648438 9.828125 -11.078125 C 9.191406 -11.503906 8.460938 -11.71875 7.640625 -11.71875 C 6.816406 -11.71875 6.085938 -11.507812 5.453125 -11.09375 C 4.816406 -10.675781 4.316406 -10.097656 3.953125 -9.359375 C 3.597656 -8.628906 3.421875 -7.804688 3.421875 -6.890625 C 3.421875 -5.960938 3.597656 -5.128906 3.953125 -4.390625 C 4.316406 -3.660156 4.816406 -3.085938 5.453125 -2.671875 C 6.085938 -2.253906 6.816406 -2.046875 7.640625 -2.046875 Z M 7.640625 -2.046875 "/></g></g></g><g fill="#000000" fill-opacity="1"><g transform="translate(282.818487, 257.41991)"><g><path d="M 4.546875 -1.25 C 4.546875 -0.90625 4.425781 -0.609375 4.1875 -0.359375 C 3.945312 -0.117188 3.648438 0 3.296875 0 C 2.953125 0 2.660156 -0.117188 2.421875 -0.359375 C 2.179688 -0.609375 2.0625 -0.90625 2.0625 -1.25 L 2.0625 -18.109375 C 2.0625 -18.460938 2.179688 -18.757812 2.421875 -19 C 2.671875 -19.25 2.972656 -19.375 3.328125 -19.375 C 3.671875 -19.375 3.957031 -19.25 4.1875 -19 C 4.425781 -18.757812 4.546875 -18.460938 4.546875 -18.109375 Z M 4.546875 -1.25 "/></g></g></g><g fill="#000000" fill-opacity="1"><g transform="translate(293.886356, 257.41991)"><g><path d="M 12.984375 -13.890625 C 13.347656 -13.890625 13.644531 -13.769531 13.875 -13.53125 C 14.113281 -13.300781 14.234375 -12.992188 14.234375 -12.609375 L 14.234375 -1.25 C 14.234375 -0.90625 14.113281 -0.609375 13.875 -0.359375 C 13.644531 -0.117188 13.347656 0 12.984375 0 C 12.617188 0 12.320312 -0.113281 12.09375 -0.34375 C 11.863281 -0.582031 11.75 -0.882812 11.75 -1.25 L 11.75 -1.9375 C 11.300781 -1.320312 10.679688 -0.800781 9.890625 -0.375 C 9.109375 0.0507812 8.265625 0.265625 7.359375 0.265625 C 6.171875 0.265625 5.09375 -0.0390625 4.125 -0.65625 C 3.15625 -1.269531 2.394531 -2.117188 1.84375 -3.203125 C 1.289062 -4.296875 1.015625 -5.523438 1.015625 -6.890625 C 1.015625 -8.242188 1.289062 -9.46875 1.84375 -10.5625 C 2.394531 -11.65625 3.148438 -12.503906 4.109375 -13.109375 C 5.066406 -13.722656 6.125 -14.03125 7.28125 -14.03125 C 8.195312 -14.03125 9.050781 -13.835938 9.84375 -13.453125 C 10.644531 -13.066406 11.28125 -12.578125 11.75 -11.984375 L 11.75 -12.609375 C 11.75 -12.984375 11.863281 -13.289062 12.09375 -13.53125 C 12.320312 -13.769531 12.617188 -13.890625 12.984375 -13.890625 Z M 7.640625 -2.046875 C 8.460938 -2.046875 9.191406 -2.253906 9.828125 -2.671875 C 10.460938 -3.085938 10.957031 -3.660156 11.3125 -4.390625 C 11.675781 -5.128906 11.859375 -5.960938 11.859375 -6.890625 C 11.859375 -7.796875 11.675781 -8.613281 11.3125 -9.34375 C 10.957031 -10.070312 10.460938 -10.648438 9.828125 -11.078125 C 9.191406 -11.503906 8.460938 -11.71875 7.640625 -11.71875 C 6.816406 -11.71875 6.085938 -11.507812 5.453125 -11.09375 C 4.816406 -10.675781 4.316406 -10.097656 3.953125 -9.359375 C 3.597656 -8.628906 3.421875 -7.804688 3.421875 -6.890625 C 3.421875 -5.960938 3.597656 -5.128906 3.953125 -4.390625 C 4.316406 -3.660156 4.816406 -3.085938 5.453125 -2.671875 C 6.085938 -2.253906 6.816406 -2.046875 7.640625 -2.046875 Z M 7.640625 -2.046875 "/></g></g></g></svg>