<?xml version="1.0" encoding="UTF-8"?>
<svg version="1.1" xmlns="http://www.w3.org/2000/svg" width="500" height="500">
<path d="M0 0 C165 0 330 0 500 0 C500 165 500 330 500 500 C335 500 170 500 0 500 C0 335 0 170 0 0 Z " fill="#FE8CA0" transform="translate(0,0)"/>
<path d="M0 0 C48.84 0 97.68 0 148 0 C148.08060607 56.20929839 148.08060607 56.20929839 148.09765625 79.875 C148.10158266 85.28125012 148.10561167 90.68750013 148.10986328 96.09375 C148.11039078 96.77117721 148.11091828 97.44860441 148.11146176 98.14655972 C148.12012027 109.03103984 148.13586535 119.91549847 148.15430559 130.79996592 C148.17312109 142.00076182 148.18399178 153.20155047 148.18817699 164.40236235 C148.19076765 170.68086568 148.19678829 176.95932054 148.21146011 183.23780823 C148.2252017 189.16718541 148.22918976 195.09649494 148.22621536 201.02588654 C148.22675821 203.18308634 148.23063564 205.34028881 148.23841095 207.49747467 C148.27661361 218.65955373 148.0136546 229.73091277 147.12252808 240.86120605 C147.00849803 242.31746297 147.00849803 242.31746297 146.89216435 243.80313921 C144.11314144 275.20761026 128.43200936 306.88022769 107.0859375 329.76171875 C105.13555617 331.85454366 103.28368633 334.00298541 101.4375 336.1875 C77.84927131 363.03849956 38.10307925 380.78803222 2.85894775 383.14306641 C-2.48858341 383.41535343 -7.83368845 383.49079985 -13.1875 383.5 C-14.01127136 383.50201416 -14.83504272 383.50402832 -15.68377686 383.50610352 C-57.7124742 383.4372256 -96.59890813 366.27212953 -126.5625 336.875 C-146.62630688 316.58250231 -160.50832645 291.45846869 -168 264 C-168.36097778 262.78993286 -168.36097778 262.78993286 -168.72924805 261.55541992 C-170.59315915 255.13528169 -171.67788037 248.97227528 -172.1875 242.3125 C-172.26500488 241.32918701 -172.34250977 240.34587402 -172.42236328 239.33276367 C-173.7449647 220.98057895 -173.58779245 203.8765706 -169 186 C-168.68651611 184.72261963 -168.68651611 184.72261963 -168.36669922 183.41943359 C-163.65417136 164.43165279 -156.32455345 146.98876744 -145 131 C-144.29230469 129.98808594 -143.58460938 128.97617188 -142.85546875 127.93359375 C-135.15407856 117.29041127 -126.26999801 107.23467113 -116 99 C-114.65808594 97.88431641 -114.65808594 97.88431641 -113.2890625 96.74609375 C-101.1769955 86.99847308 -87.44890411 78.7842076 -73 73 C-72.21882813 72.66871094 -71.43765625 72.33742188 -70.6328125 71.99609375 C-64.36762159 69.50758334 -57.91508171 67.89314311 -51.375 66.3125 C-50.05072998 65.99055664 -50.05072998 65.99055664 -48.69970703 65.66210938 C-44.46226676 64.6710249 -40.30798377 63.86392676 -35.9765625 63.41796875 C-32.22542015 63.25907136 -32.22542015 63.25907136 -30 62 C-20.1 62 -10.2 62 0 62 C0 41.54 0 21.08 0 0 Z " fill="#007F00" transform="translate(252,52)"/>
<path d="M0 0 C48.84 0 97.68 0 148 0 C148.08060607 56.20929839 148.08060607 56.20929839 148.09765625 79.875 C148.10158266 85.28125012 148.10561167 90.68750013 148.10986328 96.09375 C148.11039078 96.77117721 148.11091828 97.44860441 148.11146176 98.14655972 C148.12012027 109.03103984 148.13586535 119.91549847 148.15430559 130.79996592 C148.17312109 142.00076182 148.18399178 153.20155047 148.18817699 164.40236235 C148.19076765 170.68086568 148.19678829 176.95932054 148.21146011 183.23780823 C148.2252017 189.16718541 148.22918976 195.09649494 148.22621536 201.02588654 C148.22675821 203.18308634 148.23063564 205.34028881 148.23841095 207.49747467 C148.27661361 218.65955373 148.0136546 229.73091277 147.12252808 240.86120605 C147.00849803 242.31746297 147.00849803 242.31746297 146.89216435 243.80313921 C144.11314144 275.20761026 128.43200936 306.88022769 107.0859375 329.76171875 C105.13555617 331.85454366 103.28368633 334.00298541 101.4375 336.1875 C77.84927131 363.03849956 38.10307925 380.78803222 2.85894775 383.14306641 C-2.48858341 383.41535343 -7.83368845 383.49079985 -13.1875 383.5 C-14.01127136 383.50201416 -14.83504272 383.50402832 -15.68377686 383.50610352 C-57.7124742 383.4372256 -96.59890813 366.27212953 -126.5625 336.875 C-146.62630688 316.58250231 -160.50832645 291.45846869 -168 264 C-168.36097778 262.78993286 -168.36097778 262.78993286 -168.72924805 261.55541992 C-170.59315915 255.13528169 -171.67788037 248.97227528 -172.1875 242.3125 C-172.26500488 241.32918701 -172.34250977 240.34587402 -172.42236328 239.33276367 C-173.7449647 220.98057895 -173.58779245 203.8765706 -169 186 C-168.68651611 184.72261963 -168.68651611 184.72261963 -168.36669922 183.41943359 C-163.65417136 164.43165279 -156.32455345 146.98876744 -145 131 C-144.29230469 129.98808594 -143.58460938 128.97617188 -142.85546875 127.93359375 C-135.15407856 117.29041127 -126.26999801 107.23467113 -116 99 C-114.65808594 97.88431641 -114.65808594 97.88431641 -113.2890625 96.74609375 C-101.1769955 86.99847308 -87.44890411 78.7842076 -73 73 C-72.21882813 72.66871094 -71.43765625 72.33742188 -70.6328125 71.99609375 C-64.36762159 69.50758334 -57.91508171 67.89314311 -51.375 66.3125 C-50.05072998 65.99055664 -50.05072998 65.99055664 -48.69970703 65.66210938 C-44.46226676 64.6710249 -40.30798377 63.86392676 -35.9765625 63.41796875 C-32.22542015 63.25907136 -32.22542015 63.25907136 -30 62 C-20.1 62 -10.2 62 0 62 C0 41.54 0 21.08 0 0 Z M13 13 C12.96261719 28.27152344 12.92523438 43.54304688 12.88671875 59.27734375 C12.85644833 68.94336851 12.82542861 78.6093812 12.79101562 88.27539062 C12.73651548 103.62279169 12.68510312 118.97015923 12.65356445 134.31762695 C12.63058142 145.49486517 12.59717982 156.67201555 12.55129844 167.8491841 C12.52737052 173.76670194 12.50863885 179.68413281 12.50238609 185.60169792 C12.4963334 191.17407474 12.47632645 196.74622901 12.44572449 202.31852341 C12.4369473 204.36106254 12.43322102 206.40363075 12.43499184 208.44618797 C12.43664977 211.24151619 12.4199009 214.03617015 12.39872742 216.83140564 C12.40599878 218.03524026 12.40599878 218.03524026 12.41341704 219.26339477 C12.31494021 227.17652531 10.24792734 234.92345255 5 241 C-2.79929409 246.22312073 -9.61712943 248.01467252 -19 247 C-27.03506007 244.36537486 -31.41780694 240.30152586 -35.25 232.875 C-37.83094032 226.67457365 -38.20614701 220.70383198 -36.1171875 214.2890625 C-32.0482973 205.31594703 -26.94809538 201.83489802 -18 198 C-10.08 197.67 -2.16 197.34 6 197 C6 156.41 6 115.82 6 74 C-42.81295597 74 -83.44919232 83.57321714 -118.75 118.375 C-136.6084073 136.49040132 -148.74697982 158.72513174 -156 183 C-156.29777344 183.99386719 -156.59554687 184.98773438 -156.90234375 186.01171875 C-162.24788388 205.50565365 -162.34243438 226.17590642 -159 246 C-158.84402344 246.98484375 -158.68804687 247.9696875 -158.52734375 248.984375 C-154.49943742 272.94872528 -144.51570269 296.24104843 -129 315 C-128.13760992 316.07649386 -127.27564623 317.15332941 -126.4140625 318.23046875 C-103.68882002 346.25442816 -69.94812592 365.52118342 -34.09765625 370.39453125 C6.54052939 374.39960868 47.86676183 365.05473982 80 339 C92.82268517 328.2185527 103.976777 316.15081098 113 302 C114.01707031 300.41832031 114.01707031 300.41832031 115.0546875 298.8046875 C131.38727963 271.92263897 136.5130174 241.49137587 136.34057617 210.53417969 C136.33972747 208.36376965 136.34020978 206.19335876 136.34190369 204.02294922 C136.34275557 198.19779531 136.32526222 192.37283117 136.30418181 186.54772091 C136.28527876 180.43524607 136.28365393 174.32276567 136.28010559 168.21026611 C136.27082483 156.66528541 136.24626539 145.12039113 136.21605712 133.57544827 C136.17607891 117.95364123 136.16002613 102.33181014 136.14255047 86.70996475 C136.11444096 62.13991192 136.05464507 37.57004135 136 13 C95.41 13 54.82 13 13 13 Z " fill="#020201" transform="translate(252,52)"/>
<path d="M0 0 C1.18916016 0.01353516 1.18916016 0.01353516 2.40234375 0.02734375 C4.35169281 0.05082988 6.30088575 0.08669863 8.25 0.125 C8.33152344 2.66732342 8.39073716 5.20699202 8.4375 7.75 C8.46263672 8.46285156 8.48777344 9.17570312 8.51367188 9.91015625 C8.59090445 15.52238993 7.48595014 19.63105561 3.625 23.9375 C-0.06855696 25.78427848 -3.62952885 26.36106866 -7.75 26.125 C-12.16040074 24.00147372 -14.92193668 21.69515831 -16.75 17.125 C-17.46888663 12.33242246 -17.21643542 9.04121244 -15 4.6875 C-10.51531395 -0.42005912 -6.42782617 -0.13857668 0 0 Z " fill="#FB8A9E" transform="translate(243.75,261.875)"/>
</svg>
